# xmcd
#
# Track frame offsets: 
#        150
#        9436
#        27222
#        42606
#        62424
#        77416
#        88638
#        104835
#        119065
#        136525
#        157255
#
# Disc length: 2399 seconds
#
# Revision: 0
# Processed by: cddbd v1.5.2PL0 Copyright (c) Steve Scherf et al.
# Submitted via: ExactAudioCopy v0.99pb4
#
DISCID=8b095d0b
DTITLE=Rose-Mary Lou - Million Dollar Cowgirl
DYEAR=2006
DGENRE=Country
TTITLE0=High Speed Train
TTITLE1=Come When You Can
TTITLE2=You Call It Time
TTITLE3=Lazy Love Song
TTITLE4=I Shall Not Live In Vain
TTITLE5=My Lucky Dance
TTITLE6=Million Dollar Cowgirl
TTITLE7=Sweet Sweet Tennessee Breeze
TTITLE8=Another Eternity
TTITLE9=House Of The Rising Sun
TTITLE10=I Am America
EXTD=
EXTT0=
EXTT1=
EXTT2=
EXTT3=
EXTT4=
EXTT5=
EXTT6=
EXTT7=
EXTT8=
EXTT9=
EXTT10=
PLAYORDER=
